<?xml version="1.0" encoding="UTF-8" standalone="no"?><!DOCTYPE svg PUBLIC "-//W3C//DTD SVG 1.1//EN" "http://www.w3.org/Graphics/SVG/1.1/DTD/svg11.dtd"><svg width="100%" height="100%" viewBox="0 0 548 600" version="1.1" xmlns="http://www.w3.org/2000/svg" xmlns:xlink="http://www.w3.org/1999/xlink" xml:space="preserve" xmlns:serif="http://www.serif.com/" style="fill-rule:evenodd;clip-rule:evenodd;"><path d="M273.815,583.611c142.345,0 257.739,-115.394 257.739,-257.739c0,-142.345 -115.394,-257.739 -257.739,-257.739c-142.345,0 -257.739,115.394 -257.739,257.739c0,142.345 115.394,257.739 257.739,257.739" style="fill:#fff;fill-rule:nonzero;"/><path d="M273.815,583.611c142.345,0 257.739,-115.394 257.739,-257.739c0,-142.345 -115.394,-257.739 -257.739,-257.739c-142.345,0 -257.739,115.394 -257.739,257.739c0,142.345 115.394,257.739 257.739,257.739Z" style="fill:none;fill-rule:nonzero;stroke:#0071bc;stroke-width:1.67px;"/><path d="M526.65,129.008c-58.653,-75.22 -150.06,-123.65 -252.835,-123.65c-102.775,0 -194.183,48.43 -252.836,123.65l252.836,252.835l252.835,-252.835Z" style="fill:#0071bc;fill-rule:nonzero;stroke:#0071bc;stroke-width:2.6px;"/><path d="M55.261,111.382l27.644,19.933c1.558,1.141 3.027,1.337 4.427,0.84c2.995,-1.16 3.814,-3.926 2.173,-6.697l-12.684,-21.75l20.086,15.182c2.628,1.963 5.4,1.475 6.908,-1.361c0.66,-1.331 0.64,-2.813 -0.307,-4.495l-16.503,-29.819l-4.083,3.622l14.317,25.895l-20.362,-15.416c-1.037,-0.785 -1.952,-1.2 -2.735,-1.392c-2.533,-0.548 -4.975,1.618 -4.731,4.198c0.096,0.801 0.401,1.759 1.056,2.882l12.884,22.051l-24.008,-17.295l-4.082,3.622Zm63.731,-5.243l4.36,-3.023l-20.924,-30.182l-4.359,3.022l20.923,30.183Zm13.76,-9.783l4.692,-2.476l-14.662,-27.79l10.962,-5.784c0.181,-0.095 0.385,-0.145 0.52,-0.217c1.518,-0.512 2.644,-0.126 3.608,1.153c0.14,0.157 0.259,0.383 0.354,0.563l1.905,3.609c0.714,1.354 0.401,2.729 -1.191,3.974c-0.136,0.071 -0.292,0.211 -0.428,0.283l-7.083,3.737c-0.27,0.143 -0.541,0.285 -0.788,0.473c-1.21,0.985 -1.706,2.342 -1.405,3.568c0.279,1.294 0.981,2.077 1.532,2.248l19.263,7.542l6.226,-3.285l-19.239,-7.497l5.549,-2.927c1.895,-1 3.308,-3.13 3.572,-5.692c0.129,-1.394 -0.105,-2.712 -0.724,-3.885l-2.952,-5.595c-1.285,-2.436 -2.747,-3.567 -5.656,-4.052c-1.556,-0.216 -3.147,0.046 -4.771,0.903l-16.422,8.665l17.138,32.482Zm50.225,-23.941l14.619,-4.349c1.711,-0.509 3.213,-1.541 4.257,-2.863c1.749,-2.17 2.214,-4.543 1.414,-7.232l-1.658,-5.574c-0.654,-2.2 -2.488,-3.89 -5.29,-4.546c-1.49,-0.355 -3.171,-0.281 -4.686,0.17l-6.161,1.832c-2.053,0.611 -3.307,-0.027 -4.162,-2.007c-0.122,-0.23 -0.18,-0.426 -0.253,-0.67l-1.032,-3.472c-0.059,-0.195 -0.117,-0.391 -0.141,-0.65c-0.221,-1.637 0.186,-2.237 1.923,-3.02c0.146,-0.043 0.327,-0.15 0.474,-0.194l14.521,-4.319l-1.513,-5.085l-14.276,4.247c-2.054,0.61 -3.071,1.126 -3.918,1.857c-2.609,2.319 -3.26,4.961 -2.097,8.872l1.324,4.449c1.018,3.423 4.481,5.586 9.036,4.976c0.504,-0.097 1.007,-0.193 1.496,-0.339l5.28,-1.571c0.196,-0.058 0.391,-0.116 0.553,-0.111c1.671,-0.284 2.487,-0.048 3.237,0.687c0.425,0.353 0.653,0.764 0.799,1.253l1.323,4.449c0.16,0.537 0.119,1.295 -0.195,2.027c-0.266,0.717 -0.883,1.327 -1.831,1.715c-0.196,0.058 -0.328,0.151 -0.524,0.209l-14.031,4.174l1.512,5.085Zm32.973,-9.161l5.21,-0.998l-6.911,-36.07l-5.21,0.998l6.911,36.07Zm16.5,-3.548l5.284,-0.469l-2.626,-29.571l13.367,25.391c1.472,2.737 3.248,3.706 5.558,3.193c2.417,-0.47 3.968,-2.605 3.738,-5.196l-2.86,-32.213l-5.335,0.474l2.68,30.18l-13.408,-25.848c-1.109,-2.103 -2.104,-2.937 -3.609,-3.161c-3.943,-0.572 -5.943,1.705 -5.582,5.77l2.793,31.45Zm37.244,-2.953l17.687,0.672c1.071,0.041 2.304,-0.167 3.705,-0.778c2.854,-1.218 4.568,-3.348 5.208,-6.744c0.07,-0.508 0.139,-0.965 0.158,-1.474l0.717,-18.86c0.197,-5.199 -3.092,-8.642 -7.374,-8.804l-18.706,-0.711l-1.395,36.699Zm5.503,-5.099l0.991,-26.098l11.979,0.455c2.701,0.103 3.484,1.001 3.642,3.559c-0.01,0.255 0.031,0.511 0.022,0.766l-0.665,17.484c-0.116,3.058 -1.493,4.384 -3.838,4.295l-12.131,-0.461Zm52.116,10.193l17.085,4.624c1.034,0.279 2.283,0.353 3.785,0.073c3.055,-0.548 5.203,-2.239 6.588,-5.404c0.183,-0.479 0.352,-0.909 0.485,-1.402l4.93,-18.217c1.359,-5.023 -1.074,-9.116 -5.21,-10.235l-18.07,-4.89l-9.593,35.451Zm6.506,-3.735l6.822,-25.209l11.571,3.131c2.61,0.706 3.171,1.756 2.751,4.285c-0.067,0.246 -0.084,0.505 -0.151,0.751l-4.57,16.889c-0.799,2.954 -2.439,3.937 -4.704,3.324l-11.719,-3.171Zm26.02,12.497l5.241,2.141l5.491,-6.021l14.78,6.038l-0.297,8.144l5.241,2.142l1.36,-35.426c0.046,-2.406 -0.259,-3.412 -1.144,-4.214c-2.144,-2.034 -4.402,-1.634 -6.789,0.973l-23.883,26.223Zm14.533,-8.058l11.852,-13.231l-0.661,17.803l-11.191,-4.572Zm22.97,24.078l15.499,9.164c3.996,2.362 9.218,0.946 12.074,-3.884l1.739,-2.942c0.208,-0.351 0.389,-0.659 0.509,-1.062c0.791,-2.14 0.622,-3.958 -0.376,-5.378c1.854,-0.029 3.625,-0.819 5.127,-2.657c0.295,-0.3 0.477,-0.607 0.659,-0.914l2.258,-3.82c0.415,-0.703 0.725,-1.527 0.885,-2.499c0.579,-3.687 -0.759,-6.434 -3.657,-8.147l-16.027,-9.475l-18.69,31.614Zm7.266,-1.867l5.243,-8.869l10.451,6.178c0.439,0.259 0.844,0.677 1.241,1.208c0.804,1.246 0.856,2.461 0.415,3.208l-1.766,2.985c-0.285,0.483 -0.824,0.994 -1.443,1.34c-1.194,0.716 -2.681,0.726 -3.779,0.077l-10.362,-6.127Zm7.943,-13.436l5.348,-9.045l10.406,6.152c0.22,0.13 0.369,0.278 0.519,0.426c1.549,1.389 1.83,2.918 0.947,4.411l-1.791,3.03c-0.701,1.185 -1.607,1.716 -2.893,1.786c-0.664,0.021 -1.339,-0.14 -2.042,-0.556l-10.494,-6.204Zm23.133,27.166c-4,4.966 -3.474,9.837 1.41,13.771l11.084,8.927l3.323,-4.127l-9.971,-8.031c-2.94,-2.367 -3.431,-3.221 -2.961,-5.268c0.105,-0.374 0.217,-0.677 0.473,-0.995l1.441,-1.789l3.073,-3.816l14.62,11.774l3.355,-4.166l-14.619,-11.774l3.906,-4.85c0.224,-0.278 0.456,-0.484 0.687,-0.691c0.935,-0.754 1.845,-1.07 2.689,-0.98c0.693,0.034 1.298,0.259 1.735,0.611l1.708,1.376l10.369,8.35l3.323,-4.126l-10.448,-8.415c-5.798,-4.67 -10.191,-4.414 -14.094,0.433l-11.103,13.786Zm20.629,30.066l3.879,3.61l25.019,-26.877l-3.878,-3.61l-25.02,26.877Z" style="fill:#fff;fill-rule:nonzero;"/><path d="M273.815,583.611c142.345,0 257.739,-115.394 257.739,-257.739c0,-142.345 -115.394,-257.739 -257.739,-257.739c-142.345,0 -257.739,115.394 -257.739,257.739c0,142.345 115.394,257.739 257.739,257.739" style="fill:#fff;fill-rule:nonzero;"/><path d="M273.815,583.611c142.345,0 257.739,-115.394 257.739,-257.739c0,-142.345 -115.394,-257.739 -257.739,-257.739c-142.345,0 -257.739,115.394 -257.739,257.739c0,142.345 115.394,257.739 257.739,257.739Z" style="fill:none;fill-rule:nonzero;stroke:#0071bc;stroke-width:7.8px;"/><path d="M58.878,417.345c0,5.858 0.894,8.439 3.376,11.219c2.978,3.276 5.658,4.269 12.906,4.269l11.913,0c0.695,0 1.39,0 1.986,-0.1c10.226,-0.794 14.793,-5.559 14.793,-14.991l0,-56.292l-3.177,0l0,17.374l-25.614,0c-5.759,0 -9.134,1.291 -11.914,3.972c-2.78,2.68 -4.269,6.254 -4.269,11.516l0,23.033Zm3.177,-0.496l0,-22.338c0,-5.163 1.489,-8.141 5.262,-10.623c1.787,-1.192 3.772,-1.688 7.545,-1.688l25.813,0l0,35.344c0,7.346 -3.872,11.119 -12.311,12.012c-0.695,0 -1.39,0.1 -2.085,0.1l-11.218,0c-9.73,0 -13.006,-3.475 -13.006,-12.807m56.29,15.984l3.276,0l0,-54.008l-3.276,0l0,54.008Zm-1.291,-62.249c0,0.794 0.199,1.489 0.695,2.085c1.093,1.191 2.979,1.291 4.071,0.099c1.191,-1.191 1.092,-3.177 -0.199,-4.269c-1.092,-0.993 -2.779,-0.893 -3.772,0.199c-0.497,0.496 -0.795,1.191 -0.795,1.886m18.764,80.119l26.309,0c13.006,0 18.168,-4.765 18.168,-15.19l0,-41.002c0,-10.028 -3.872,-14.297 -14.296,-15.488c-1.192,-0.099 -2.284,-0.199 -3.475,-0.199l-11.417,0c-0.794,0 -1.688,0.1 -2.482,0.199c-9.134,1.191 -12.807,5.56 -12.807,15.289l0,23.232c0,6.552 1.29,9.729 4.765,12.41c2.979,2.382 4.964,2.879 12.509,2.879l23.828,0l0,3.077c0,7.148 -2.78,10.325 -9.829,11.418c-0.894,0.099 -1.688,0.198 -2.581,0.198l-28.692,0l0,3.177Zm3.177,-33.259l0,-23.43c0,-8.339 3.574,-11.913 12.41,-11.913l12.41,0c0.893,0 1.787,0 2.68,0.099c7.843,0.993 10.524,4.468 10.524,12.807l0,34.649l-24.125,0c-10.424,0 -13.899,-3.177 -13.899,-12.212m55.794,15.389l3.276,0l0,-54.008l-3.276,0l0,54.008Zm-1.29,-62.249c0,0.794 0.198,1.489 0.695,2.085c1.092,1.191 2.978,1.291 4.07,0.099c1.192,-1.191 1.092,-3.177 -0.198,-4.269c-1.092,-0.993 -2.78,-0.893 -3.773,0.199c-0.496,0.496 -0.794,1.191 -0.794,1.886m18.763,62.249l3.177,0l0,-50.732l15.289,0l0,-3.277l-15.289,0l0,-17.473l-3.177,0l0,71.482Zm22.039,-13.8c0,7.346 4.17,12.41 11.814,13.601c0.894,0.099 1.787,0.199 2.581,0.199l16.282,0c4.865,0 8.042,-1.39 10.623,-4.269c2.284,-2.681 3.078,-5.064 3.078,-10.325l0,-24.324c0.099,-10.127 -5.361,-15.091 -16.282,-15.091l-27.997,0l0,3.277l29.585,0c7.248,0 11.616,3.971 11.616,11.218l0,3.475l-27.202,0c-8.638,0 -14.098,5.46 -14.098,14.197l0,8.042Zm3.177,-0.199l0,-7.942c0,-6.156 3.177,-9.829 8.935,-10.722c0.596,-0.1 1.191,-0.199 1.787,-0.199l27.302,0l0,19.062c0,6.751 -3.673,10.623 -10.424,10.623l-16.58,0c-0.596,0 -1.192,-0.1 -1.688,-0.199c-6.552,-1.092 -9.332,-4.666 -9.332,-10.623m55.496,13.999l3.177,0l0,-71.482l-3.177,0l0,71.482Zm16.579,0l10.325,0l0,-30.38l31.075,0l0,30.38l10.424,0l0,-71.482l-10.424,0l0,30.777l-31.075,0l0,-30.777l-10.325,0l0,71.482Zm64.333,-17.573c0,7.843 3.773,13.601 10.325,16.282c2.184,0.894 4.269,1.291 6.255,1.291l17.771,0c1.985,0 4.07,-0.397 6.155,-1.291c6.652,-2.78 10.425,-8.439 10.425,-16.282l0,-53.909l-10.425,0l0,53.214c0,5.659 -2.184,7.943 -7.744,7.943l-14.594,0c-5.559,0 -7.843,-2.383 -7.843,-8.539l0,-52.618l-10.325,0l0,53.909Zm63.439,17.573l35.046,0c9.034,0 16.381,-7.546 16.381,-18.466l0,-6.652c0,-0.794 0,-1.489 -0.199,-2.284c-0.794,-4.368 -2.879,-7.247 -5.956,-8.637c3.077,-1.886 5.262,-4.964 5.956,-9.531c0.199,-0.794 0.199,-1.489 0.199,-2.184l0,-8.637c0,-1.589 -0.298,-3.277 -0.993,-5.064c-2.68,-6.751 -7.644,-10.027 -14.197,-10.027l-36.237,0l0,71.482Zm10.325,-10.325l0,-20.055l23.629,0c0.993,0 2.085,0.298 3.276,0.794c2.581,1.291 3.872,3.276 3.872,4.964l0,6.751c0,1.092 -0.397,2.482 -1.092,3.674c-1.291,2.382 -3.773,3.872 -6.255,3.872l-23.43,0Zm0,-30.38l0,-20.452l23.53,0c0.496,0 0.893,0.1 1.29,0.199c3.971,0.794 5.957,3.077 5.957,6.453l0,6.85c0,2.681 -0.993,4.468 -3.078,5.858c-1.092,0.695 -2.382,1.092 -3.971,1.092l-23.728,0Z" style="fill:#0071bc;fill-rule:nonzero;"/><rect x="138.561" y="328.87" width="10.944" height="10.944" style="fill:#0071bc;"/><rect x="247.706" y="328.87" width="10.944" height="10.944" style="fill:#0071bc;"/><rect x="193.133" y="328.87" width="10.944" height="10.944" style="fill:#0071bc;"/><rect x="302.279" y="328.87" width="10.944" height="10.944" style="fill:#0071bc;"/><rect x="370.422" y="328.87" width="10.944" height="10.944" style="fill:#0071bc;"/><rect x="165.847" y="328.87" width="10.944" height="10.944" style="fill:#0071bc;"/><rect x="274.992" y="328.87" width="10.944" height="10.944" style="fill:#0071bc;"/><rect x="220.42" y="328.87" width="10.944" height="10.944" style="fill:#0071bc;"/><rect x="329.565" y="328.87" width="10.944" height="10.944" style="fill:#0071bc;"/><rect x="397.708" y="328.87" width="10.944" height="10.944" style="fill:#0071bc;"/><rect x="152.204" y="328.87" width="10.944" height="10.944" style="fill:#0071bc;"/><rect x="261.349" y="328.87" width="10.944" height="10.944" style="fill:#0071bc;"/><rect x="206.777" y="328.87" width="10.944" height="10.944" style="fill:#0071bc;"/><rect x="315.922" y="328.87" width="10.944" height="10.944" style="fill:#0071bc;"/><rect x="384.065" y="328.87" width="10.944" height="10.944" style="fill:#0071bc;"/><rect x="179.49" y="328.87" width="10.944" height="10.944" style="fill:#0071bc;"/><rect x="288.635" y="328.87" width="10.944" height="10.944" style="fill:#0071bc;"/><rect x="356.778" y="328.87" width="10.944" height="10.944" style="fill:#0071bc;"/><rect x="234.063" y="328.87" width="10.944" height="10.944" style="fill:#0071bc;"/><rect x="343.208" y="328.87" width="10.944" height="10.944" style="fill:#0071bc;"/><rect x="165.847" y="219.725" width="10.944" height="10.944" style="fill:#0071bc;"/><rect x="247.706" y="274.298" width="10.944" height="10.944" style="fill:#0071bc;"/><rect x="165.847" y="274.298" width="10.944" height="10.944" style="fill:#0071bc;"/><rect x="220.42" y="274.298" width="10.944" height="10.944" style="fill:#0071bc;"/><rect x="329.565" y="274.298" width="10.944" height="10.944" style="fill:#0071bc;"/><rect x="152.204" y="274.298" width="10.944" height="10.944" style="fill:#0071bc;"/><rect x="261.349" y="274.298" width="10.944" height="10.944" style="fill:#0071bc;"/><rect x="315.922" y="274.298" width="10.944" height="10.944" style="fill:#0071bc;"/><rect x="179.49" y="274.298" width="10.944" height="10.944" style="fill:#0071bc;"/><rect x="356.778" y="274.298" width="10.944" height="10.944" style="fill:#0071bc;"/><rect x="234.063" y="274.298" width="10.944" height="10.944" style="fill:#0071bc;"/><rect x="343.208" y="274.298" width="10.944" height="10.944" style="fill:#0071bc;"/><rect x="165.847" y="165.152" width="10.944" height="10.944" style="fill:#0071bc;"/><rect x="247.706" y="301.584" width="10.944" height="10.944" style="fill:#0071bc;"/><rect x="302.279" y="301.584" width="10.944" height="10.944" style="fill:#0071bc;"/><rect x="370.422" y="301.584" width="10.944" height="10.944" style="fill:#0071bc;"/><rect x="165.847" y="301.584" width="10.944" height="10.944" style="fill:#0071bc;"/><rect x="274.992" y="301.584" width="10.944" height="10.944" style="fill:#0071bc;"/><rect x="220.42" y="301.584" width="10.944" height="10.944" style="fill:#0071bc;"/><rect x="329.565" y="301.584" width="10.944" height="10.944" style="fill:#0071bc;"/><rect x="152.204" y="301.584" width="10.944" height="10.944" style="fill:#0071bc;"/><rect x="261.349" y="301.584" width="10.944" height="10.944" style="fill:#0071bc;"/><rect x="206.777" y="301.584" width="10.944" height="10.944" style="fill:#0071bc;"/><rect x="315.922" y="301.584" width="10.944" height="10.944" style="fill:#0071bc;"/><rect x="179.49" y="301.584" width="10.944" height="10.944" style="fill:#0071bc;"/><rect x="356.778" y="301.584" width="10.944" height="10.944" style="fill:#0071bc;"/><rect x="234.063" y="301.584" width="10.944" height="10.944" style="fill:#0071bc;"/><rect x="343.208" y="301.584" width="10.944" height="10.944" style="fill:#0071bc;"/><rect x="165.847" y="192.439" width="10.944" height="10.944" style="fill:#0071bc;"/><rect x="247.706" y="247.011" width="10.944" height="10.944" style="fill:#0071bc;"/><rect x="165.847" y="247.011" width="10.944" height="10.944" style="fill:#0071bc;"/><rect x="152.204" y="247.011" width="10.944" height="10.944" style="fill:#0071bc;"/><rect x="152.204" y="219.944" width="10.944" height="10.944" style="fill:#0071bc;"/><rect x="179.49" y="247.011" width="10.944" height="10.944" style="fill:#0071bc;"/><rect x="179.49" y="219.944" width="10.944" height="10.944" style="fill:#0071bc;"/><rect x="234.063" y="247.011" width="10.944" height="10.944" style="fill:#0071bc;"/><rect x="247.706" y="315.227" width="10.944" height="10.944" style="fill:#0071bc;"/><rect x="193.133" y="315.227" width="10.944" height="10.944" style="fill:#0071bc;"/><rect x="302.279" y="315.227" width="10.944" height="10.944" style="fill:#0071bc;"/><rect x="370.422" y="315.227" width="10.944" height="10.944" style="fill:#0071bc;"/><rect x="165.847" y="315.227" width="10.944" height="10.944" style="fill:#0071bc;"/><rect x="274.992" y="315.227" width="10.944" height="10.944" style="fill:#0071bc;"/><rect x="220.42" y="315.227" width="10.944" height="10.944" style="fill:#0071bc;"/><rect x="329.565" y="315.227" width="10.944" height="10.944" style="fill:#0071bc;"/><rect x="152.204" y="315.227" width="10.944" height="10.944" style="fill:#0071bc;"/><rect x="261.349" y="315.227" width="10.944" height="10.944" style="fill:#0071bc;"/><rect x="206.777" y="315.227" width="10.944" height="10.944" style="fill:#0071bc;"/><rect x="315.922" y="315.227" width="10.944" height="10.944" style="fill:#0071bc;"/><rect x="384.065" y="315.227" width="10.944" height="10.944" style="fill:#0071bc;"/><rect x="179.49" y="315.227" width="10.944" height="10.944" style="fill:#0071bc;"/><rect x="288.635" y="315.227" width="10.944" height="10.944" style="fill:#0071bc;"/><rect x="356.778" y="315.227" width="10.944" height="10.944" style="fill:#0071bc;"/><rect x="234.063" y="315.227" width="10.944" height="10.944" style="fill:#0071bc;"/><rect x="343.208" y="315.227" width="10.944" height="10.944" style="fill:#0071bc;"/><rect x="165.847" y="206.082" width="10.944" height="10.944" style="fill:#0071bc;"/><rect x="247.706" y="260.654" width="10.944" height="10.944" style="fill:#0071bc;"/><rect x="165.847" y="260.654" width="10.944" height="10.944" style="fill:#0071bc;"/><rect x="152.204" y="260.654" width="10.944" height="10.944" style="fill:#0071bc;"/><rect x="179.49" y="260.654" width="10.944" height="10.944" style="fill:#0071bc;"/><rect x="234.063" y="260.654" width="10.944" height="10.944" style="fill:#0071bc;"/><rect x="247.706" y="287.941" width="10.944" height="10.944" style="fill:#0071bc;"/><rect x="302.279" y="287.941" width="10.944" height="10.944" style="fill:#0071bc;"/><rect x="370.422" y="287.941" width="10.944" height="10.944" style="fill:#0071bc;"/><rect x="165.847" y="287.941" width="10.944" height="10.944" style="fill:#0071bc;"/><rect x="274.992" y="287.941" width="10.944" height="10.944" style="fill:#0071bc;"/><rect x="220.42" y="287.941" width="10.944" height="10.944" style="fill:#0071bc;"/><rect x="329.565" y="287.941" width="10.944" height="10.944" style="fill:#0071bc;"/><rect x="152.204" y="287.941" width="10.944" height="10.944" style="fill:#0071bc;"/><rect x="261.349" y="287.941" width="10.944" height="10.944" style="fill:#0071bc;"/><rect x="206.777" y="287.941" width="10.944" height="10.944" style="fill:#0071bc;"/><rect x="315.922" y="287.941" width="10.944" height="10.944" style="fill:#0071bc;"/><rect x="179.49" y="287.941" width="10.944" height="10.944" style="fill:#0071bc;"/><rect x="356.778" y="287.941" width="10.944" height="10.944" style="fill:#0071bc;"/><rect x="234.063" y="287.941" width="10.944" height="10.944" style="fill:#0071bc;"/><rect x="343.208" y="287.941" width="10.944" height="10.944" style="fill:#0071bc;"/><rect x="165.847" y="178.796" width="10.944" height="10.944" style="fill:#0071bc;"/><rect x="165.847" y="233.368" width="10.944" height="10.944" style="fill:#0071bc;"/><rect x="152.204" y="233.368" width="10.944" height="10.944" style="fill:#0071bc;"/><rect x="179.49" y="233.368" width="10.944" height="10.944" style="fill:#0071bc;"/><path d="M198.686,486.591l4.838,0l2.397,-6.537l13.641,0l2.397,6.537l4.838,0l-10.373,-28.46c-0.741,-1.917 -1.307,-2.614 -2.266,-2.963c-2.354,-0.915 -4.01,0.131 -5.056,2.963l-10.416,28.46Zm8.891,-11.07l5.099,-14.295l5.23,14.295l-10.329,0Zm24.188,4.75c0,2.092 1.046,4.054 2.833,5.23c1.133,0.741 2.266,1.09 3.225,1.09l7.845,0c1.961,0 3.618,-0.959 4.881,-3.007c0.567,-0.915 0.828,-1.918 0.828,-3.007l0,-12.116c0,-0.349 -0.043,-0.698 -0.087,-1.046c-0.697,-3.095 -2.484,-4.359 -5.578,-4.359l-13.947,0l0,3.923l13.816,0l0.392,0.043c0.567,0.044 0.915,0.262 1.221,0.698c0.174,0.261 0.261,0.566 0.261,0.871l0,1.526l-9.675,0c-3.661,0 -6.015,2.528 -6.015,7.322l0,2.832Zm3.923,0.088l0,-3.792c0,-0.131 0,-0.305 0.043,-0.436c0.393,-1.438 1.046,-1.918 2.746,-2.092l6.232,0c1.7,0.174 2.31,0.654 2.702,2.092c0.044,0.131 0.044,0.305 0.044,0.436l0,3.792c0,0.13 0,0.261 -0.044,0.392c-0.435,1.569 -1.002,1.918 -3.181,1.918l-5.317,0c-2.179,0 -2.746,-0.349 -3.182,-1.918c-0.043,-0.131 -0.043,-0.262 -0.043,-0.392m20.755,0.261c0,2.136 1.046,3.966 3.181,5.143c0.959,0.566 2.005,0.828 3.4,0.828l8.978,0l0,-3.922l-8.935,0c-0.566,0 -1.089,-0.175 -1.569,-0.523c-0.523,-0.393 -0.915,-1.046 -1.089,-1.875c-0.044,-0.174 -0.044,-0.348 -0.044,-0.522l0,-10.242c0,-1.177 0.61,-2.005 1.656,-2.354c0.393,-0.131 0.698,-0.174 0.916,-0.174l9.021,0l0,-3.923l-9.021,0c-0.349,0 -0.698,0.044 -1.046,0.087c-3.792,0.48 -5.448,2.485 -5.448,5.841l0,11.636Zm19.96,5.971l3.923,0l0,-16.997c0,-1.7 0.871,-2.615 2.702,-2.615l6.537,0c0.175,0 0.349,0 0.523,0.043c1.09,0.262 1.7,0.916 1.831,2.179c0.043,0.175 0.043,0.349 0.043,0.523l0,16.867l3.923,0l0,-17.956c0,-1.09 -0.305,-2.136 -0.828,-3.007c-1.177,-1.874 -2.528,-2.572 -4.969,-2.572l-9.762,0l0,-7.845l-3.923,0l0,31.38Zm24.102,-6.189c0,1.482 0.479,2.833 1.307,3.923c1.264,1.612 2.789,2.266 5.099,2.266l13.162,0l0,-3.922l-12.944,0c-1.874,0 -2.353,-0.48 -2.702,-2.615l0,-0.262l0,-0.784l15.385,-7.148l0,-2.789c0,-3.792 -2.354,-6.015 -6.189,-6.015l-5.84,0c-4.969,0 -7.278,2.31 -7.278,6.799l0,10.547Zm3.922,-10.46c0,-2.092 0.784,-2.963 2.659,-2.963l6.406,0c1.787,0 2.397,0.523 2.397,2.048l0,0.349l-11.462,5.317l0,-4.751Zm20.353,16.649l3.922,0l0,-16.997c0,-1.874 0.654,-2.528 2.702,-2.528l6.233,0c1.569,0 2.484,0.61 2.658,1.438l0,18.087l3.923,0l0,-17.477c0,-3.922 -2.354,-6.058 -6.625,-6.058l-6.189,0c-4.271,0 -6.624,2.136 -6.624,6.058l0,17.477Z" style="fill:#0071bc;fill-rule:nonzero;"/></svg>