<?xml version="1.0" encoding="UTF-8" standalone="no"?><!DOCTYPE svg PUBLIC "-//W3C//DTD SVG 1.1//EN" "http://www.w3.org/Graphics/SVG/1.1/DTD/svg11.dtd"><svg width="100%" height="100%" viewBox="0 0 524 138" version="1.1" xmlns="http://www.w3.org/2000/svg" xmlns:xlink="http://www.w3.org/1999/xlink" xml:space="preserve" xmlns:serif="http://www.serif.com/" style="fill-rule:evenodd;clip-rule:evenodd;stroke-linejoin:round;stroke-miterlimit:2;"><g><g transform="matrix(3.78226,0,0,3.78226,-951.805,-690.585)"><text x="314.178px" y="191.167px" style="font-family:'Menlo-Bold', 'Menlo', monospace;font-weight:700;font-size:10.576px;fill:#db3a17;">M</text><text x="320.545px" y="191.167px" style="font-family:'Menlo-Regular', 'Menlo', monospace;font-size:10.576px;fill:#db3a17;">ap</text><text x="314.178px" y="203.858px" style="font-family:'Menlo-Bold', 'Menlo', monospace;font-weight:700;font-size:10.576px;fill:#db3a17;">I</text><text x="320.545px" y="203.858px" style="font-family:'Menlo-Regular', 'Menlo', monospace;font-size:10.576px;fill:#db3a17;">ntelligence</text><text x="314.178px" y="216.549px" style="font-family:'Menlo-Bold', 'Menlo', monospace;font-weight:700;font-size:10.576px;fill:#db3a17;">A</text><text x="320.545px" y="216.549px" style="font-family:'Menlo-Regular', 'Menlo', monospace;font-size:10.576px;fill:#db3a17;">gency</text></g><path d="M205.503,38.332c4.09,0 7.405,-3.317 7.405,-7.407c0,-4.088 -3.315,-7.405 -7.405,-7.405c-4.09,0 -7.405,3.317 -7.405,7.405c0,0.899 0.169,1.757 0.462,2.555l-21.616,18.415l-27.389,-16.111c0.155,-0.632 0.247,-1.292 0.247,-1.974c0,-4.56 -3.696,-8.256 -8.257,-8.256c-1.85,0 -3.551,0.615 -4.927,1.643l-24.746,-19.649c0.115,-0.469 0.183,-0.954 0.183,-1.457c0,-3.366 -2.728,-6.091 -6.092,-6.091c-3.364,0 -6.091,2.727 -6.091,6.091c0,1.552 0.586,2.966 1.542,4.041l-12.424,26.589c-0.553,-0.096 -1.12,-0.158 -1.703,-0.158c-1.831,0 -3.539,0.509 -5.006,1.378l-32.869,-14.723c0.077,-0.479 0.128,-0.967 0.128,-1.467c0,-5.067 -4.107,-9.174 -9.174,-9.174c-5.065,0 -9.175,4.107 -9.175,9.174c0,5.067 4.107,9.174 9.175,9.174c2.878,0 5.442,-1.326 7.124,-3.398l31.259,14.001c-0.817,1.435 -1.292,3.092 -1.292,4.863c0,1.814 0.624,3.417 1.477,4.876l-17.528,17.537c-2.419,-1.727 -5.336,-2.755 -8.523,-2.755c-5.625,0 -10.465,3.196 -12.949,7.844l-0.205,-0.068c-0.002,0.025 -0.008,0.049 -0.011,0.074l-24.437,-11.105c0.034,-0.286 0.053,-0.577 0.053,-0.871c0,-4.235 -3.432,-7.667 -7.667,-7.667c-4.235,0 -7.667,3.432 -7.667,7.667c0,4.235 3.432,7.667 7.667,7.667c2.244,0 4.256,-0.969 5.657,-2.506l24.959,11.346c-0.01,0.028 -0.019,0.053 -0.031,0.079l0.119,0.04c-0.115,0.741 -0.23,1.478 -0.23,2.246c0,4.161 1.731,7.912 4.503,10.593l-0.036,0.027c0.008,0.011 0.017,0.022 0.025,0.03l-12.717,18.74c-0.33,-0.057 -0.668,-0.093 -1.018,-0.093c-3.149,0 -5.701,2.55 -5.701,5.702c0,3.148 2.552,5.701 5.701,5.701c3.149,0 5.702,-2.553 5.702,-5.701c0,-1.067 -0.298,-2.064 -0.809,-2.917l11.421,-16.829l1.511,-1.867c1.876,0.867 3.958,1.365 6.162,1.365c4.049,0 7.726,-1.642 10.396,-4.293l14.889,10.627c-0.424,1.094 -0.711,2.257 -0.711,3.494c0,5.425 4.397,9.83 9.83,9.83c4.597,0 8.442,-3.158 9.519,-7.414l33.887,-10.481c2.08,3.864 6.16,6.493 10.856,6.493c2.711,0 5.21,-0.887 7.246,-2.371l15.159,14.075c-0.081,0.411 -0.126,0.837 -0.126,1.271c0,3.692 2.994,6.686 6.686,6.686c3.692,0 6.683,-2.992 6.683,-6.686c0,-3.69 -2.991,-6.683 -6.683,-6.683c-1.505,0 -2.892,0.502 -4.009,1.343l-14.502,-13.462c1.176,-1.888 1.902,-4.109 1.902,-6.494c0,-5.993 -3.537,-10.986 -9.924,-12.087l0,-37.674c2.129,-0.366 2.304,-1.018 3.221,-1.87l28.385,16.71l23.802,33.331c-0.196,0.49 -0.311,1.024 -0.311,1.586c0,2.395 1.937,4.337 4.333,4.337c2.395,0 4.337,-1.942 4.337,-4.337c0,-2.395 -1.944,-4.337 -4.339,-4.337c-0.064,0 -0.128,0.006 -0.192,0.011l-22.845,-31.979l21.144,-18.011c1.149,0.739 2.516,1.171 3.985,1.171Zm-76.279,53.145c0,0.447 0.028,0.886 0.074,1.32l-32.522,10.058c-1.111,-4.205 -4.931,-7.314 -9.491,-7.314c-2.391,0 -4.501,0.961 -6.202,2.37l-14.985,-10.692c0.952,-1.959 1.527,-4.109 1.527,-6.424c0,-3.176 -1.037,-6.112 -2.747,-8.514l17.529,-17.537c1.461,0.853 3.062,1.477 4.878,1.477c3.496,0 6.555,-1.824 8.297,-4.571l36.667,31.753c-1.877,2.166 -3.025,4.983 -3.025,8.074Zm10.496,-12.087c-2.129,0.213 -2.416,0.581 -3.398,1.069l-39.09,-33.738c0.004,-0.111 -0.049,-0.217 -0.049,-0.328c0,-3.162 -1.529,-5.966 -3.845,-7.763l12.347,-26.46c0.097,0.004 0.187,0.015 0.285,0.015c1.128,0 2.178,-0.313 3.085,-0.85l24.742,19.65c-0.321,0.883 -0.24,1.833 -0.24,2.827c0,3.741 1.905,6.894 6.163,7.91l0,37.668Z" style="fill:url(#_Linear1);fill-rule:nonzero;"/></g><defs><linearGradient id="_Linear1" x1="0" y1="0" x2="1" y2="0" gradientUnits="userSpaceOnUse" gradientTransform="matrix(212.908,0,0,123.463,1.77636e-15,61.7313)"><stop offset="0" style="stop-color:#c00035;stop-opacity:1"/><stop offset="1" style="stop-color:#c40;stop-opacity:1"/></linearGradient></defs></svg>